<svg xmlns="http://www.w3.org/2000/svg" xmlns:xlink="http://www.w3.org/1999/xlink" version="1.1" id="Layer_1" x="0px" y="0px" enable-background="new 0 0 1280 598" xml:space="preserve" viewBox="1 1 1280 598">
<path fill="#FEFEFE" opacity="1.000000" stroke="none" d=" M799.000000,599.000000   C532.666687,599.000000 266.833374,599.000000 1.000036,599.000000   C1.000024,399.666687 1.000024,200.333389 1.000012,1.000062   C427.666626,1.000042 854.333252,1.000042 1281.000000,1.000021   C1281.000000,200.333267 1281.000000,399.666534 1281.000000,598.999878   C1120.500000,599.000000 960.000000,599.000000 799.000000,599.000000  M375.500000,472.954224   C425.492249,472.953308 475.485687,473.136322 525.475891,472.814148   C537.078674,472.739410 548.811035,471.755341 560.239380,469.777313   C588.489868,464.887604 606.045349,448.122528 611.803040,419.873627   C613.622986,410.944489 614.955505,401.741882 615.009399,392.655518   C615.331238,338.332977 615.254028,284.007751 615.186707,229.683624   C615.179504,223.874115 614.640808,218.030441 613.888916,212.262543   C610.010803,182.511429 593.315186,163.089447 564.133667,156.214844   C552.416809,153.454590 540.095764,152.213455 528.036743,152.128494   C469.881989,151.718811 411.722809,151.937103 353.565186,151.946503   C352.125244,151.946732 350.685272,152.108063 349.269470,152.192825   C349.269470,259.250061 349.269470,365.964691 349.269470,472.954224   C357.885345,472.954224 366.192688,472.954224 375.500000,472.954224  M194.500107,145.362045   C176.168701,145.362335 157.822998,144.923218 139.510925,145.518188   C127.411697,145.911301 115.144073,146.747574 103.329872,149.203735   C71.306816,155.861282 53.564400,174.745255 51.030704,207.332184   C49.163822,231.342865 49.831699,255.625443 50.606487,279.747131   C51.504208,307.696228 67.212173,324.334320 93.719780,331.457123   C94.522324,331.672729 95.312065,331.966797 96.128082,332.097015   C123.233780,336.422729 150.341583,340.735291 177.449982,345.044006   C187.800446,346.689117 198.260193,347.836792 208.473541,350.098816   C217.928574,352.192780 222.507217,357.645935 222.806961,366.870667   C223.250443,380.519531 223.306091,394.206268 222.820175,407.851685   C222.469040,417.712494 215.879333,423.512146 205.933044,424.063690   C203.605927,424.192749 201.268158,424.152069 198.935287,424.152313   C151.437164,424.156891 103.939056,424.156067 56.440941,424.156342   C54.680355,424.156372 52.919773,424.156342 50.953049,424.156342   C50.953049,433.188416 51.809437,441.627136 50.728676,449.809998   C49.476524,459.290466 54.220345,464.003845 61.557575,467.617004   C64.833405,469.230194 68.112106,471.184052 71.613701,471.928040   C82.641731,474.271057 93.742172,477.623932 104.875336,477.873230   C141.186844,478.686401 177.526047,478.445740 213.852753,478.255920   C222.134094,478.212677 230.512909,477.318146 238.665573,475.825348   C262.859009,471.395355 280.445465,458.982544 286.518707,433.825958   C287.801727,428.511414 288.886261,423.004150 288.967285,417.569397   C289.312622,394.413055 289.329712,371.250366 289.267242,348.090546   C289.253387,342.948853 288.642944,337.780182 287.942322,332.674011   C285.080688,311.818146 273.859283,297.948822 253.429062,291.934753   C251.036148,291.230286 248.664520,290.313416 246.215881,289.959747   C218.212509,285.914673 190.193420,281.978394 162.184479,277.971588   C151.316040,276.416779 140.389877,275.129608 129.625336,273.027527   C120.970558,271.337433 114.918213,265.694000 114.485229,256.707611   C113.836876,243.251160 113.781372,229.698486 114.627518,216.259384   C115.289970,205.737717 120.773941,201.597046 131.482346,201.125320   C133.478790,201.037369 135.481400,201.078415 137.481155,201.078354   C182.146042,201.076859 226.810944,201.077942 271.475830,201.078537   C273.236267,201.078552 274.996704,201.078522 276.999847,201.078522   C276.999847,189.615814 277.180054,178.799438 276.854431,167.998306   C276.785675,165.718353 275.465576,162.481171 273.688324,161.425735   C267.171356,157.555496 260.501953,153.581848 253.374771,151.169022   C234.616196,144.818527 215.011734,145.172958 194.500107,145.362045  M1166.565430,447.967621   C1168.876099,455.082703 1171.364014,462.147278 1173.413452,469.336823   C1174.278320,472.370270 1175.772461,473.036255 1178.701904,473.019928   C1200.195190,472.900055 1221.689697,472.959808 1243.183716,472.949036   C1244.434570,472.948395 1245.685547,472.826691 1247.481201,472.732880   C1208.716797,364.559174 1170.117798,256.846893 1131.574219,149.289230   C1102.931641,149.289230 1074.808472,149.289230 1046.490479,149.289230   C1008.321838,257.123016 970.191467,364.848541 931.993103,472.766174   C953.466492,472.766174 974.428467,472.766174 995.471252,472.766174   C996.014404,471.232483 996.538513,469.850647 996.995850,468.447083   C1005.029053,443.795990 1013.095276,419.155457 1021.025146,394.471130   C1021.949158,391.595001 1022.996704,390.197266 1026.417969,390.209717   C1065.573242,390.352051 1104.729492,390.342896 1143.885010,390.221649   C1147.000488,390.212006 1148.173340,391.345734 1149.051270,394.101410   C1154.702515,411.839996 1160.503418,429.530945 1166.565430,447.967621  M857.499878,200.715561   C874.445984,200.715561 891.392090,200.715561 908.805054,200.715561   C908.805054,188.400711 908.586182,176.609039 908.926270,164.833511   C909.041809,160.832748 907.649292,158.866943 904.244507,157.238525   C889.587769,150.228607 874.015137,146.506409 857.956238,146.165268   C825.314209,145.471863 792.651001,145.333694 760.002502,145.626892   C749.252747,145.723404 738.356750,147.051514 727.813965,149.213242   C701.724670,154.562683 682.737366,168.912079 675.551331,195.481567   C672.843140,205.494705 671.333801,216.137360 671.260315,226.507095   C670.856323,283.490173 670.993896,340.477814 671.155151,397.463287   C671.176208,404.920990 671.882629,412.465302 673.159729,419.815186   C678.034363,447.868317 693.809387,466.710938 721.665344,473.989288   C732.208313,476.744019 743.250916,478.633545 754.116211,478.906097   C783.257751,479.637146 812.427551,479.463440 841.584045,479.292023   C860.551575,479.180481 878.988892,475.704224 896.603943,468.488434   C908.842529,463.475006 908.804993,463.383545 908.804993,450.258636   C908.804993,441.659882 908.805054,433.061127 908.805054,424.154724   C906.315125,424.154724 904.506592,424.154785 902.698120,424.154755   C859.542114,424.153778 816.385986,424.195465 773.230042,424.134399   C750.301758,424.101990 742.622864,416.396393 742.608276,393.516205   C742.573547,339.029633 742.589722,284.543060 742.611511,230.056473   C742.612671,227.228806 742.704590,224.384201 743.016479,221.576630   C744.177612,211.124680 749.939514,204.312485 760.152100,202.089371   C764.819885,201.073303 769.721924,200.794449 774.520325,200.773697   C801.846436,200.655411 829.173279,200.715851 857.499878,200.715561  M311.658661,540.499939   C311.658661,551.933044 311.658661,563.366211 311.658661,575.077454   C313.447113,575.077454 314.763947,575.082642 316.080750,575.076660   C323.560394,575.042542 331.052612,575.265381 338.516510,574.904297   C347.904144,574.450195 353.053436,569.691711 353.641510,560.352722   C354.183563,551.744141 354.149170,543.054932 353.677002,534.439148   C353.191467,525.579895 348.119110,520.480591 339.477386,520.077637   C330.371796,519.653137 321.231110,519.982544 311.658691,519.982544   C311.658691,526.600647 311.658691,533.050415 311.658661,540.499939  M441.048157,557.498657   C441.048157,563.285828 441.048157,569.072937 441.048157,575.606445   C443.783813,574.905640 445.886200,574.367126 447.988586,573.828552   C453.183624,574.933899 458.657715,575.895264 464.135132,575.914673   C471.227295,575.939880 475.123169,571.724854 475.238129,564.602722   C475.358917,557.119995 475.330505,549.633057 475.242798,542.149414   C475.172485,536.148926 472.526672,532.926208 466.600555,532.820496   C460.435730,532.710449 454.254456,533.524719 447.601013,533.966675   C447.601013,529.008545 447.601013,522.973755 447.601013,516.873657   C445.149811,516.873657 443.233398,516.873657 441.048126,516.873657   C441.048126,530.268433 441.048126,543.383850 441.048157,557.498657  M84.958893,562.366760   C84.933990,569.487976 84.251335,570.218262 77.367584,570.236755   C68.735092,570.260010 60.102493,570.242432 51.605682,570.242432   C50.026482,574.689026 53.014435,575.526794 55.621445,575.603699   C64.931320,575.878052 74.263870,576.067383 83.563828,575.692749   C87.934204,575.516724 90.875641,572.549194 91.267555,567.897522   C91.560249,564.423523 91.666435,560.922546 91.638939,557.435242   C91.577812,549.679443 88.571571,546.236816 80.857216,545.070435   C75.758636,544.299561 70.632164,543.714355 65.520653,543.027649   C58.670956,542.107483 57.625305,540.341675 58.178574,530.696655   C58.455757,525.864624 60.126240,524.560303 66.349907,524.523804   C73.802818,524.480042 81.256180,524.513489 88.597099,524.513489   C90.053200,520.069458 87.097191,519.385132 84.482239,519.178650   C79.844337,518.812439 75.167130,518.886963 70.506203,518.879761   C53.393036,518.853394 51.574562,520.705566 51.814465,537.744141   C51.913174,544.754456 54.266388,547.674500 61.232128,548.912964   C65.981125,549.757263 70.779129,550.347412 75.569885,550.930847   C84.276489,551.991211 84.967751,552.722717 84.958893,562.366760  M997.827332,519.256287   C995.336609,519.256287 992.845886,519.256287 989.971863,519.256287   C983.470154,537.691101 976.972778,556.113586 970.355896,574.874939   C972.793335,574.874939 974.746399,574.874939 976.828613,574.874939   C977.712341,572.336121 978.579651,569.831360 979.456177,567.329895   C980.384888,564.679443 981.322510,562.032166 982.320007,559.202454   C986.607178,559.202454 990.757935,559.202637 994.908752,559.202515   C1006.598389,559.202209 1006.927490,559.097412 1010.432922,570.121887   C1012.055237,575.224243 1014.687927,575.817566 1019.270569,574.627869   C1017.075256,568.558167 1015.050659,562.775879 1012.896423,557.042236   C1008.177795,544.483459 1003.393372,531.949463 997.827332,519.256287  M390.089081,566.150574   C390.128540,570.159058 391.612976,573.849243 395.521423,574.787292   C403.220917,576.635376 411.163422,578.057739 417.158356,573.216980   C419.896240,574.102600 421.996033,574.781799 423.955811,575.415710   C423.955811,564.019226 424.026184,553.574890 423.928162,543.132141   C423.873383,537.294495 421.364136,533.542847 416.271057,533.138550   C409.680084,532.615295 403.005249,532.929565 396.377808,533.180603   C393.285919,533.297791 392.076050,535.137878 393.502441,538.327271   C398.404602,538.327271 403.222656,538.325867 408.040680,538.327637   C416.924164,538.330872 417.645355,539.078003 417.327728,548.077454   C417.300079,548.860657 417.041931,549.635681 416.825226,550.752930   C411.027710,550.752930 405.386169,550.625916 399.753174,550.791321   C394.861603,550.934875 391.587433,553.529663 390.516022,558.335876   C390.017761,560.570984 390.203217,562.958557 390.089081,566.150574  M1046.251953,576.018127   C1049.620483,575.084045 1052.989014,574.150024 1055.554810,573.438538   C1057.882446,574.135376 1059.982300,574.763977 1061.918091,575.343567   C1061.918091,564.072693 1061.987183,553.764648 1061.892578,543.458130   C1061.834106,537.089111 1059.185425,533.424683 1053.516235,533.017944   C1047.234253,532.567261 1040.883301,532.901489 1034.570923,533.128357   C1031.513916,533.238281 1030.015015,534.869629 1031.323853,538.081421   C1031.680176,538.161804 1031.999756,538.295654 1032.319946,538.296997   C1037.317993,538.317688 1042.316284,538.295593 1047.314087,538.334839   C1054.419189,538.390686 1055.312988,539.306030 1055.265747,546.446472   C1055.257324,547.734924 1055.085205,549.022339 1054.966187,550.610535   C1052.232910,550.610535 1049.763672,550.606873 1047.294434,550.611572   C1044.628906,550.616638 1041.959717,550.542847 1039.298584,550.655640   C1031.527100,550.984924 1028.215454,554.420837 1028.045776,562.208191   C1027.807007,573.163879 1030.658447,576.021667 1041.827148,576.020691   C1042.993408,576.020630 1044.159546,576.020386 1046.251953,576.018127  M876.159424,556.530151   C878.165710,556.155945 880.166992,555.494385 882.179260,555.459045   C889.571594,555.329346 896.967529,555.407593 904.333496,555.407593   C904.333496,550.491638 904.622620,546.988892 904.273560,543.551025   C903.536804,536.294189 899.589111,533.132874 891.284241,532.671631   C877.870667,531.926636 871.912781,534.540710 870.139587,541.980713   C869.948059,542.784302 869.867126,543.631897 869.863037,544.459656   C869.830811,551.123779 869.704651,557.790894 869.859497,564.451294   C869.974976,569.420715 872.477783,573.970032 877.187256,574.609192   C884.806824,575.643188 892.651672,575.197021 900.389771,574.974304   C901.493469,574.942566 902.532410,572.661316 904.428650,570.461365   C896.819275,570.461365 891.165405,570.509888 885.512634,570.449524   C877.788635,570.367065 876.162048,568.689270 876.129822,560.985596   C876.124939,559.819214 876.129089,558.652771 876.159424,556.530151  M600.005188,575.944092   C602.577820,574.973145 606.847961,575.839844 605.755737,570.443665   C600.482971,570.443665 595.342041,570.442566 590.201111,570.443848   C579.978882,570.446472 578.905884,569.400757 578.989136,559.413391   C578.999817,558.130981 579.154236,556.849670 579.282288,554.979858   C588.656860,554.979858 597.753052,554.979858 607.214722,554.979858   C607.214722,551.078796 607.354309,547.776001 607.186096,544.489014   C606.821716,537.367859 603.176453,533.458923 596.057007,532.880615   C592.099487,532.559143 588.067322,532.570740 584.112976,532.924866   C577.032837,533.558899 573.230957,537.244080 572.710632,544.409912   C572.254211,550.694641 572.272644,557.043457 572.545471,563.343872   C572.893127,571.373108 577.506226,575.689331 585.633728,575.979004   C590.117554,576.138855 594.612000,575.997681 600.005188,575.944092  M755.486023,576.028625   C767.553345,576.031006 768.786377,575.536011 768.634216,570.446960   C764.174988,570.446960 759.703979,570.444702 755.232971,570.447388   C742.312805,570.455078 741.378540,569.473450 742.029602,556.500793   C742.044312,556.207336 742.341187,555.928040 742.862122,555.026855   C751.604431,555.026855 760.700317,555.026855 770.192932,555.026855   C770.192932,551.128479 770.331909,547.824524 770.164734,544.536072   C769.787170,537.109253 765.908142,533.388489 758.084961,532.723511   C744.372437,531.557983 737.795105,534.269409 735.995300,541.890930   C735.653259,543.339172 735.403809,544.845398 735.386963,546.328003   C735.324646,551.814514 735.210999,557.308899 735.425659,562.788147   C735.759583,571.310364 740.415710,575.730408 749.031067,576.016479   C750.858215,576.077209 752.689026,576.026978 755.486023,576.028625  M491.572144,570.731140   C496.273529,575.771729 516.176208,578.363770 521.558716,574.478516   C522.469788,573.820923 522.733032,572.265991 523.630127,570.447327   C518.135132,570.447327 513.662231,570.446777 509.189392,570.447449   C496.187225,570.449402 495.333984,569.551453 495.986237,556.484802   C496.000946,556.189514 496.290619,555.907898 496.815765,554.970947   C505.535400,554.970947 514.615356,554.970947 524.452209,554.970947   C524.089722,549.707520 524.342896,544.999146 523.319763,540.586609   C521.948242,534.671692 517.461548,532.632446 507.929077,532.595642   C500.860901,532.568359 492.628693,532.092834 490.498993,540.613586   C488.096802,550.224487 487.896729,560.342773 491.572144,570.731140  M141.133728,567.979858   C143.090530,570.141479 144.865051,573.931213 147.036621,574.174377   C155.149857,575.082642 163.394379,574.945923 171.586014,574.858765   C172.575745,574.848267 173.543304,572.751404 174.521133,571.621582   C169.048355,570.446777 164.428223,570.446045 159.808105,570.446960   C147.366211,570.449341 146.042099,569.025574 146.982071,556.613342   C147.005035,556.310181 147.249542,556.023743 147.791870,554.893311   C156.578964,554.893311 165.771576,554.893311 175.137573,554.893311   C175.137573,550.907593 175.253632,547.753540 175.114166,544.610840   C174.793243,537.378845 170.943787,533.494507 163.574707,532.780518   C149.555359,531.422119 142.848022,534.108215 140.941177,541.851318   C140.822083,542.334961 140.686768,542.834717 140.691574,543.325623   C140.769623,551.281067 140.869141,559.236267 141.133728,567.979858  M242.118454,571.242920   C243.535995,572.370911 244.908249,574.400879 246.378723,574.474731   C253.723907,574.843628 261.202118,575.464233 268.417206,574.452942   C272.862000,573.829956 275.031342,569.081848 275.153931,564.407166   C275.332733,557.590759 275.436829,550.753967 275.109009,543.948181   C274.803314,537.602112 270.631287,533.348206 264.395538,532.853760   C259.935272,532.500183 255.400177,532.504517 250.940323,532.865723   C244.036209,533.424988 240.023026,537.598877 239.736237,544.550232   C239.468933,551.029297 239.523239,557.535217 239.788391,564.014893   C239.879089,566.231689 241.037598,568.404785 242.118454,571.242920  M687.846924,524.429077   C687.070190,525.886475 685.640503,527.334534 685.619507,528.802734   C685.441772,541.195618 685.119019,553.612000 685.731140,565.977295   C685.961121,570.624023 689.933777,574.468750 694.701233,574.874878   C703.252808,575.603455 711.896790,575.434692 720.497070,575.305054   C723.550720,575.259033 724.812683,573.283325 723.135254,570.001404   C716.109131,570.001404 708.959106,570.071594 701.811218,569.981140   C694.992188,569.894836 691.748413,567.324951 691.390869,560.550720   C690.935059,551.917480 690.940918,543.225769 691.372314,534.590454   C691.726807,527.494141 694.873840,524.997681 702.037598,524.929443   C709.176941,524.861450 716.317444,524.914551 723.384399,524.914551   C725.004456,520.568298 722.337280,519.317993 719.361572,519.221741   C711.884033,518.979919 704.354309,518.733032 696.925476,519.390808   C693.936768,519.655518 691.156982,522.279846 687.846924,524.429077  M1121.342041,546.660828   C1121.542236,538.086853 1119.672363,539.713196 1129.074219,538.397949   C1131.036133,538.123535 1133.063965,538.294189 1135.061279,538.306152   C1141.824341,538.346741 1142.815918,539.349976 1142.817505,546.105103   C1142.819702,555.696533 1142.817993,565.288025 1142.817993,574.846313   C1145.200195,574.846313 1146.960449,574.846313 1149.099365,574.846313   C1149.099365,563.853210 1149.147095,553.071167 1149.080811,542.289917   C1149.042725,536.083069 1146.237793,532.810913 1140.056274,532.790344   C1133.920044,532.770020 1127.781128,533.622253 1121.210449,534.124939   C1121.210449,529.011108 1121.210449,522.959167 1121.210449,516.808167   C1118.960449,516.808167 1117.192383,516.808167 1115.185303,516.808167   C1115.185303,536.209412 1115.185303,555.432251 1115.185303,574.791016   C1117.269043,574.791016 1119.156006,574.791016 1121.343262,574.791016   C1121.343262,565.550964 1121.343262,556.588623 1121.342041,546.660828  M785.042358,538.744385   C785.042358,550.815125 785.042358,562.885925 785.042358,574.902222   C787.543152,574.902222 789.343506,574.902222 791.057007,574.902222   C791.288147,574.419556 791.551758,574.124512 791.553589,573.827820   C791.597717,566.503235 791.627319,559.178467 791.632629,551.853760   C791.642578,538.214661 791.635498,538.214661 805.193054,538.333069   C811.985168,538.392395 812.892029,539.302612 812.897827,546.142639   C812.906006,555.747070 812.899902,565.351440 812.899902,574.921509   C815.291870,574.921509 817.096191,574.921509 819.249023,574.921509   C819.249023,564.797485 819.251892,554.831421 819.246033,544.865295   C819.245178,543.367554 819.286194,541.863098 819.165405,540.373352   C818.820740,536.122559 816.258423,533.132507 812.288513,533.101013   C806.098755,533.052002 799.899658,534.112122 793.705994,534.717590   C792.987854,534.787842 792.206299,535.209656 791.579590,535.030212   C789.602661,534.464111 787.685486,533.689575 785.045349,532.745422   C785.045349,535.240417 785.045349,536.528076 785.042358,538.744385  M1234.735718,557.262939   C1240.647339,557.465210 1239.817383,561.747192 1239.745361,565.557556   C1239.667114,569.696533 1236.908203,570.282471 1233.592773,570.258301   C1227.470825,570.213684 1221.348267,570.245605 1215.274536,570.245605   C1214.703369,574.814270 1214.744385,575.359192 1218.792236,575.634216   C1225.085449,576.061707 1231.450684,576.190308 1237.734985,575.740479   C1242.627808,575.390198 1245.689575,571.551636 1246.067017,566.619019   C1246.231689,564.466125 1246.119751,562.292175 1246.135498,560.127747   C1246.170776,555.310181 1243.519897,552.688904 1239.016846,552.011414   C1234.743164,551.368530 1230.417114,550.916992 1226.100342,550.760010   C1221.073486,550.577087 1220.887573,547.514832 1220.892944,543.627563   C1220.898682,539.331665 1223.098633,538.129517 1226.828613,538.157898   C1232.466797,538.200806 1238.105591,538.169067 1243.651123,538.169067   C1244.893555,534.925781 1243.698975,533.175354 1240.836060,533.075195   C1234.697754,532.860352 1228.491455,532.462036 1222.418213,533.116516   C1216.472168,533.757202 1214.143921,538.349548 1214.435425,546.526489   C1214.656372,552.725586 1216.898071,555.341553 1222.936035,556.136169   C1226.564209,556.613647 1230.223999,556.851501 1234.735718,557.262939  M621.368286,553.026794   C623.403931,554.048584 625.343201,555.564087 627.496338,555.984497   C631.398315,556.746582 635.422791,557.093994 639.405396,557.179382   C644.651001,557.291748 644.986267,560.444275 644.975647,564.556030   C644.964111,569.035706 642.789856,570.354248 638.757751,570.276062   C632.619202,570.157043 626.476685,570.244873 620.442322,570.244873   C618.513733,574.863220 621.691650,575.612488 624.465820,575.756287   C630.442322,576.065857 636.464355,576.189453 642.430054,575.804749   C647.627380,575.469666 650.764954,571.794067 651.174194,566.560364   C651.329590,564.572754 651.323303,562.563721 651.256165,560.569031   C651.072632,555.112732 649.053101,552.741089 643.585266,551.933228   C639.803040,551.374390 635.973877,550.917053 632.158325,550.852539   C627.071289,550.766479 625.771423,548.284180 625.978027,543.544983   C626.184143,538.819580 628.807800,538.109619 632.545959,538.143494   C638.002441,538.192932 643.459656,538.156189 648.813843,538.156189   C650.043579,534.823059 648.732056,533.156067 645.901733,533.066223   C639.761963,532.871155 633.501099,532.318542 627.515442,533.295349   C624.747620,533.747009 621.080994,537.061462 620.369141,539.751953   C619.339233,543.644470 620.622253,548.148865 621.368286,553.026794  M1167.678589,533.530273   C1167.057983,534.454346 1165.908325,535.372559 1165.898071,536.303467   C1165.783447,546.617432 1165.735107,556.935242 1165.905151,567.248108   C1165.992554,572.547913 1169.265015,576.001404 1174.824707,575.833130   C1180.509521,575.661011 1186.160522,574.377319 1191.826416,573.579468   C1192.435791,573.493652 1193.120483,573.178650 1193.640015,573.354431   C1195.595581,574.015930 1197.497314,574.836792 1199.697998,575.708435   C1199.697998,560.881592 1199.697998,547.334534 1199.697998,533.930664   C1197.473877,533.930664 1195.601685,533.930664 1193.429443,533.930664   C1193.429443,545.770630 1193.429443,557.199402 1193.429443,569.528381   C1188.090454,569.736633 1183.014160,569.928528 1177.938477,570.134460   C1173.649170,570.308594 1172.053101,568.159912 1172.117432,564.000854   C1172.256226,555.018372 1172.041016,546.029724 1172.229126,537.049072   C1172.290283,534.128662 1171.313599,533.106445 1167.678589,533.530273  M196.477219,549.519653   C196.478989,538.374878 196.478989,538.374573 207.896545,538.298523   C208.896332,538.291870 209.896698,538.268982 210.895859,538.292664   C216.725220,538.430847 217.852020,539.554626 217.864548,545.381653   C217.885574,555.164978 217.870300,564.948425 217.870300,574.755371   C220.219055,574.755371 222.099319,574.755371 224.158539,574.755371   C224.158539,563.457520 224.235123,552.474060 224.124649,541.492554   C224.073181,536.376282 221.353790,533.011414 216.322479,532.939697   C209.684723,532.845093 203.033737,533.678772 195.870911,534.147217   C194.606262,533.963318 192.547012,533.663818 190.250092,533.329834   C190.250092,547.613159 190.250092,561.199097 190.250092,574.762573   C192.394577,574.762573 194.286789,574.762573 196.477142,574.762573   C196.477142,566.478760 196.477142,558.497253 196.477219,549.519653  M854.985962,575.795715   C857.364563,575.003601 861.282837,575.679871 859.550537,570.766235   C856.425232,570.766235 853.202087,571.167786 850.157593,570.604187   C848.529846,570.302856 845.996948,568.386169 845.945862,567.115234   C845.581421,558.042175 845.751404,548.947571 845.751404,539.510742   C850.724548,539.510742 855.169800,539.510742 859.755737,539.510742   C859.755737,537.731628 859.755737,536.313965 859.755737,534.557861   C855.083374,534.557861 850.640991,534.557861 845.704590,534.557861   C845.704590,530.317444 845.704590,526.403992 845.704590,522.121399   C843.220276,522.507446 841.285217,522.808105 838.866028,523.184021   C838.866028,526.997681 838.866028,530.720398 838.866028,534.452087   C836.269287,534.619629 834.177856,534.754517 831.768738,534.909973   C831.918945,536.605835 832.039917,537.972229 832.158813,539.315002   C834.663696,539.493713 836.739624,539.641785 839.050598,539.806580   C839.050598,548.621460 839.030945,557.086426 839.056396,565.551270   C839.079102,573.109131 841.644958,575.772034 849.119263,576.005493   C850.778381,576.057312 852.442871,575.937012 854.985962,575.795715  M561.639526,534.730591   C557.228943,534.730591 552.818298,534.730591 548.079712,534.730591   C548.079712,530.001587 548.079712,526.243896 548.079712,522.150696   C545.791199,522.567200 543.926147,522.906616 541.741211,523.304321   C541.741211,527.180176 541.741211,530.766296 541.741211,534.689819   C539.245544,534.689819 537.135864,534.689819 534.931641,534.689819   C534.931641,536.440857 534.931641,537.830505 534.931641,539.346863   C537.351746,539.461731 539.475403,539.562561 541.931213,539.679138   C541.931213,549.009644 541.976135,558.149231 541.911987,567.288086   C541.880554,571.765259 543.893372,574.949707 548.260864,575.457031   C552.308594,575.927246 556.512390,575.482056 560.589172,574.972961   C561.608459,574.845703 562.403564,572.923035 564.143250,570.797180   C559.216919,570.797180 555.976501,571.262207 552.973450,570.618896   C551.232910,570.246094 548.614136,568.147644 548.549377,566.727234   C548.142944,557.818787 548.343811,548.882629 548.343811,539.417358   C553.414917,539.417358 557.987305,539.417358 562.961731,539.417358   C562.739746,537.560974 562.587952,536.291565 561.639526,534.730591  M126.981537,539.485352   C130.952484,539.872925 131.464981,538.044922 129.994873,534.509399   C125.490425,534.509399 121.053925,534.509399 116.112671,534.509399   C116.112671,530.209534 116.112671,526.290894 116.112671,522.035645   C113.682716,522.530518 111.818802,522.910156 109.611710,523.359619   C109.611710,527.241028 109.611710,530.809570 109.611710,534.485840   C107.078743,534.613342 104.965179,534.719788 102.473679,534.845215   C102.547585,536.460205 102.610466,537.834290 102.678223,539.314941   C105.214470,539.453125 107.335159,539.568604 109.864052,539.706360   C109.864052,549.008362 109.943565,558.127625 109.832809,567.244507   C109.771141,572.320190 112.338409,575.214478 117.081306,575.690613   C120.656494,576.049561 124.372154,575.671204 127.938492,575.089233   C129.151291,574.891357 130.099304,573.070862 131.168304,571.991760   C127.136444,570.794739 123.899994,571.255310 120.895935,570.618896   C119.144974,570.247986 116.491341,568.179138 116.427147,566.774536   C116.019150,557.846252 116.219696,548.890198 116.219696,539.485840   C119.813438,539.485840 122.947632,539.485840 126.981537,539.485352  M919.206726,555.499512   C919.206726,561.938843 919.206726,568.378174 919.206726,574.851929   C921.683411,574.851929 923.603027,574.851929 925.920471,574.851929   C925.920471,564.664368 926.074280,554.720215 925.835144,544.785583   C925.753906,541.408752 926.909363,539.857483 930.120056,539.583923   C934.547913,539.206726 938.975281,538.824463 943.536804,538.432800   C943.536804,536.646362 943.536804,534.958801 943.536804,532.146484   C937.405884,533.224792 931.814697,534.208252 927.037598,535.048462   C924.362976,534.357239 922.057983,533.761536 919.206726,533.024719   C919.206726,540.919189 919.206726,547.709534 919.206726,555.499512  M1079.007690,566.453735   C1079.007690,569.234314 1079.007690,572.014893 1079.007690,574.806519   C1081.404419,574.806519 1083.299805,574.806519 1085.543945,574.806519   C1085.543945,564.751709 1085.765991,554.969360 1085.434937,545.205750   C1085.301758,541.277832 1086.818970,539.729492 1090.330933,539.433716   C1094.571045,539.076599 1098.816895,538.788574 1103.254883,538.456055   C1103.254883,536.661926 1103.254883,535.072449 1103.254883,532.214050   C1097.124878,533.277466 1091.415405,534.267944 1086.693115,535.087158   C1083.928345,534.351562 1081.718506,533.763550 1079.007690,533.042297   C1079.007690,544.572571 1079.007690,555.018250 1079.007690,566.453735  M375.889526,543.545532   C375.889526,540.290833 375.889526,537.036194 375.889526,533.747437   C373.356262,533.747437 371.442505,533.747437 369.384918,533.747437   C369.384918,547.576233 369.384918,561.110901 369.384918,574.739380   C371.631348,574.739380 373.646759,574.739380 375.889526,574.739380   C375.889526,564.417297 375.889526,554.475220 375.889526,543.545532  M369.152863,518.874268   C369.152863,520.768921 369.152863,522.663574 369.152863,524.545044   C371.750519,524.545044 373.638947,524.545044 375.722778,524.545044   C375.722778,521.856018 375.722778,519.464661 375.722778,515.934265   C373.258392,516.720337 371.209961,517.373779 369.152863,518.874268  z"/>
<path fill="#6E0102" opacity="1.000000" stroke="none" d=" M375.000000,472.954224   C366.192688,472.954224 357.885345,472.954224 349.269470,472.954224   C349.269470,365.964691 349.269470,259.250061 349.269470,152.192825   C350.685272,152.108063 352.125244,151.946732 353.565186,151.946503   C411.722809,151.937103 469.881989,151.718811 528.036743,152.128494   C540.095764,152.213455 552.416809,153.454590 564.133667,156.214844   C593.315186,163.089447 610.010803,182.511429 613.888916,212.262543   C614.640808,218.030441 615.179504,223.874115 615.186707,229.683624   C615.254028,284.007751 615.331238,338.332977 615.009399,392.655518   C614.955505,401.741882 613.622986,410.944489 611.803040,419.873627   C606.045349,448.122528 588.489868,464.887604 560.239380,469.777313   C548.811035,471.755341 537.078674,472.739410 525.475891,472.814148   C475.485687,473.136322 425.492249,472.953308 375.000000,472.954224  M543.911072,377.499817   C543.906860,329.366394 543.961243,281.232880 543.871338,233.099625   C543.832092,212.112091 536.491638,204.909378 515.521912,204.883881   C485.376038,204.847214 455.230072,204.866165 425.084167,204.873215   C423.807709,204.873520 422.531250,204.992920 421.122009,205.063492   C421.122009,276.961517 421.122009,348.509338 421.122009,420.268860   C422.444885,420.371216 423.577942,420.534943 424.711060,420.535461   C454.856964,420.549286 485.002930,420.559753 515.148804,420.524048   C517.974365,420.520691 520.812439,420.325714 523.622681,420.018280   C535.080383,418.764740 541.620605,412.873810 543.009399,401.417572   C543.926392,393.853027 543.652100,386.144012 543.911072,377.499817  z"/>
<path fill="#6F0203" opacity="1.000000" stroke="none" d=" M195.000092,145.362061   C215.011734,145.172958 234.616196,144.818527 253.374771,151.169022   C260.501953,153.581848 267.171356,157.555496 273.688324,161.425735   C275.465576,162.481171 276.785675,165.718353 276.854431,167.998306   C277.180054,178.799438 276.999847,189.615814 276.999847,201.078522   C274.996704,201.078522 273.236267,201.078552 271.475830,201.078537   C226.810944,201.077942 182.146042,201.076859 137.481155,201.078354   C135.481400,201.078415 133.478790,201.037369 131.482346,201.125320   C120.773941,201.597046 115.289970,205.737717 114.627518,216.259384   C113.781372,229.698486 113.836876,243.251160 114.485229,256.707611   C114.918213,265.694000 120.970558,271.337433 129.625336,273.027527   C140.389877,275.129608 151.316040,276.416779 162.184479,277.971588   C190.193420,281.978394 218.212509,285.914673 246.215881,289.959747   C248.664520,290.313416 251.036148,291.230286 253.429062,291.934753   C273.859283,297.948822 285.080688,311.818146 287.942322,332.674011   C288.642944,337.780182 289.253387,342.948853 289.267242,348.090546   C289.329712,371.250366 289.312622,394.413055 288.967285,417.569397   C288.886261,423.004150 287.801727,428.511414 286.518707,433.825958   C280.445465,458.982544 262.859009,471.395355 238.665573,475.825348   C230.512909,477.318146 222.134094,478.212677 213.852753,478.255920   C177.526047,478.445740 141.186844,478.686401 104.875336,477.873230   C93.742172,477.623932 82.641731,474.271057 71.613701,471.928040   C68.112106,471.184052 64.833405,469.230194 61.557575,467.617004   C54.220345,464.003845 49.476524,459.290466 50.728676,449.809998   C51.809437,441.627136 50.953049,433.188416 50.953049,424.156342   C52.919773,424.156342 54.680355,424.156372 56.440941,424.156342   C103.939056,424.156067 151.437164,424.156891 198.935287,424.152313   C201.268158,424.152069 203.605927,424.192749 205.933044,424.063690   C215.879333,423.512146 222.469040,417.712494 222.820175,407.851685   C223.306091,394.206268 223.250443,380.519531 222.806961,366.870667   C222.507217,357.645935 217.928574,352.192780 208.473541,350.098816   C198.260193,347.836792 187.800446,346.689117 177.449982,345.044006   C150.341583,340.735291 123.233780,336.422729 96.128082,332.097015   C95.312065,331.966797 94.522324,331.672729 93.719780,331.457123   C67.212173,324.334320 51.504208,307.696228 50.606487,279.747131   C49.831699,255.625443 49.163822,231.342865 51.030704,207.332184   C53.564400,174.745255 71.306816,155.861282 103.329872,149.203735   C115.144073,146.747574 127.411697,145.911301 139.510925,145.518188   C157.822998,144.923218 176.168701,145.362335 195.000092,145.362061  z"/>
<path fill="#6E0102" opacity="1.000000" stroke="none" d=" M1166.410278,447.602570   C1160.503418,429.530945 1154.702515,411.839996 1149.051270,394.101410   C1148.173340,391.345734 1147.000488,390.212006 1143.885010,390.221649   C1104.729492,390.342896 1065.573242,390.352051 1026.417969,390.209717   C1022.996704,390.197266 1021.949158,391.595001 1021.025146,394.471130   C1013.095276,419.155457 1005.029053,443.795990 996.995850,468.447083   C996.538513,469.850647 996.014404,471.232483 995.471252,472.766174   C974.428467,472.766174 953.466492,472.766174 931.993103,472.766174   C970.191467,364.848541 1008.321838,257.123016 1046.490479,149.289230   C1074.808472,149.289230 1102.931641,149.289230 1131.574219,149.289230   C1170.117798,256.846893 1208.716797,364.559174 1247.481201,472.732880   C1245.685547,472.826691 1244.434570,472.948395 1243.183716,472.949036   C1221.689697,472.959808 1200.195190,472.900055 1178.701904,473.019928   C1175.772461,473.036255 1174.278320,472.370270 1173.413452,469.336823   C1171.364014,462.147278 1168.876099,455.082703 1166.410278,447.602570  M1041.427490,336.626495   C1070.818359,336.626495 1100.209229,336.626495 1129.936279,336.626495   C1114.380127,288.206940 1099.022339,240.405136 1083.816406,193.075958   C1083.748169,193.261963 1083.283813,194.275345 1083.002441,195.337204   C1081.387207,201.435226 1080.080200,207.628311 1078.185425,213.636780   C1065.749268,253.072525 1053.175171,292.464813 1040.725708,331.896332   C1040.272095,333.332977 1040.642822,335.029846 1041.427490,336.626495  z"/>
<path fill="#6F0203" opacity="1.000000" stroke="none" d=" M856.999878,200.715546   C829.173279,200.715851 801.846436,200.655411 774.520325,200.773697   C769.721924,200.794449 764.819885,201.073303 760.152100,202.089371   C749.939514,204.312485 744.177612,211.124680 743.016479,221.576630   C742.704590,224.384201 742.612671,227.228806 742.611511,230.056473   C742.589722,284.543060 742.573547,339.029633 742.608276,393.516205   C742.622864,416.396393 750.301758,424.101990 773.230042,424.134399   C816.385986,424.195465 859.542114,424.153778 902.698120,424.154755   C904.506592,424.154785 906.315125,424.154724 908.805054,424.154724   C908.805054,433.061127 908.804993,441.659882 908.804993,450.258636   C908.804993,463.383545 908.842529,463.475006 896.603943,468.488434   C878.988892,475.704224 860.551575,479.180481 841.584045,479.292023   C812.427551,479.463440 783.257751,479.637146 754.116211,478.906097   C743.250916,478.633545 732.208313,476.744019 721.665344,473.989288   C693.809387,466.710938 678.034363,447.868317 673.159729,419.815186   C671.882629,412.465302 671.176208,404.920990 671.155151,397.463287   C670.993896,340.477814 670.856323,283.490173 671.260315,226.507095   C671.333801,216.137360 672.843140,205.494705 675.551331,195.481567   C682.737366,168.912079 701.724670,154.562683 727.813965,149.213242   C738.356750,147.051514 749.252747,145.723404 760.002502,145.626892   C792.651001,145.333694 825.314209,145.471863 857.956238,146.165268   C874.015137,146.506409 889.587769,150.228607 904.244507,157.238525   C907.649292,158.866943 909.041809,160.832748 908.926270,164.833511   C908.586182,176.609039 908.805054,188.400711 908.805054,200.715561   C891.392090,200.715561 874.445984,200.715561 856.999878,200.715546  z"/>
<path fill="#070707" opacity="1.000000" stroke="none" d=" M311.658691,540.000061   C311.658691,533.050415 311.658691,526.600647 311.658691,519.982544   C321.231110,519.982544 330.371796,519.653137 339.477386,520.077637   C348.119110,520.480591 353.191467,525.579895 353.677002,534.439148   C354.149170,543.054932 354.183563,551.744141 353.641510,560.352722   C353.053436,569.691711 347.904144,574.450195 338.516510,574.904297   C331.052612,575.265381 323.560394,575.042542 316.080750,575.076660   C314.763947,575.082642 313.447113,575.077454 311.658661,575.077454   C311.658661,563.366211 311.658661,551.933044 311.658691,540.000061  M341.755280,526.364624   C334.084503,525.749451 326.413696,525.134277 318.580658,524.506104   C318.580658,540.239868 318.580658,554.825378 318.580658,569.863770   C324.452362,569.863770 330.072845,569.988770 335.685547,569.833374   C343.408295,569.619446 346.813873,566.149475 346.970703,558.287476   C347.113556,551.127075 347.480255,543.914978 346.791748,536.818420   C346.458191,533.380188 343.933441,530.154480 341.755280,526.364624  z"/>
<path fill="#0E0E0E" opacity="1.000000" stroke="none" d=" M441.048157,556.999023   C441.048126,543.383850 441.048126,530.268433 441.048126,516.873657   C443.233398,516.873657 445.149811,516.873657 447.601013,516.873657   C447.601013,522.973755 447.601013,529.008545 447.601013,533.966675   C454.254456,533.524719 460.435730,532.710449 466.600555,532.820496   C472.526672,532.926208 475.172485,536.148926 475.242798,542.149414   C475.330505,549.633057 475.358917,557.119995 475.238129,564.602722   C475.123169,571.724854 471.227295,575.939880 464.135132,575.914673   C458.657715,575.895264 453.183624,574.933899 447.988586,573.828552   C445.886200,574.367126 443.783813,574.905640 441.048157,575.606445   C441.048157,569.072937 441.048157,563.285828 441.048157,556.999023  M453.084900,569.835571   C456.065460,569.972595 459.046112,570.224915 462.026520,570.221558   C467.536255,570.215332 468.816742,568.940857 468.905334,563.571350   C468.962799,560.086548 468.922089,556.600098 468.922241,553.114380   C468.922974,537.383179 467.705109,536.471863 451.780365,538.834900   C448.308228,539.350159 447.483398,540.815247 447.580902,544.010315   C447.778229,550.477539 447.881439,556.968079 447.541565,563.423584   C447.344330,567.170288 448.770325,568.976929 453.084900,569.835571  z"/>
<path fill="#0D0D0D" opacity="1.000000" stroke="none" d=" M84.962646,561.917847   C84.967751,552.722717 84.276489,551.991211 75.569885,550.930847   C70.779129,550.347412 65.981125,549.757263 61.232128,548.912964   C54.266388,547.674500 51.913174,544.754456 51.814465,537.744141   C51.574562,520.705566 53.393036,518.853394 70.506203,518.879761   C75.167130,518.886963 79.844337,518.812439 84.482239,519.178650   C87.097191,519.385132 90.053200,520.069458 88.597099,524.513489   C81.256180,524.513489 73.802818,524.480042 66.349907,524.523804   C60.126240,524.560303 58.455757,525.864624 58.178574,530.696655   C57.625305,540.341675 58.670956,542.107483 65.520653,543.027649   C70.632164,543.714355 75.758636,544.299561 80.857216,545.070435   C88.571571,546.236816 91.577812,549.679443 91.638939,557.435242   C91.666435,560.922546 91.560249,564.423523 91.267555,567.897522   C90.875641,572.549194 87.934204,575.516724 83.563828,575.692749   C74.263870,576.067383 64.931320,575.878052 55.621445,575.603699   C53.014435,575.526794 50.026482,574.689026 51.605682,570.242432   C60.102493,570.242432 68.735092,570.260010 77.367584,570.236755   C84.251335,570.218262 84.933990,569.487976 84.962646,561.917847  z"/>
<path fill="#0C0C0C" opacity="1.000000" stroke="none" d=" M998.231567,519.330811   C1003.393372,531.949463 1008.177795,544.483459 1012.896423,557.042236   C1015.050659,562.775879 1017.075256,568.558167 1019.270569,574.627869   C1014.687927,575.817566 1012.055237,575.224243 1010.432922,570.121887   C1006.927490,559.097412 1006.598389,559.202209 994.908752,559.202515   C990.757935,559.202637 986.607178,559.202454 982.320007,559.202454   C981.322510,562.032166 980.384888,564.679443 979.456177,567.329895   C978.579651,569.831360 977.712341,572.336121 976.828613,574.874939   C974.746399,574.874939 972.793335,574.874939 970.355896,574.874939   C976.972778,556.113586 983.470154,537.691101 989.971863,519.256287   C992.845886,519.256287 995.336609,519.256287 998.231567,519.330811  M998.373535,553.950806   C1000.270020,553.950806 1002.166504,553.950806 1004.667664,553.950806   C1001.110901,543.898987 997.811768,534.575256 994.118469,524.137451   C992.149231,529.906860 990.557800,534.551636 988.978699,539.200562   C987.347595,544.002625 985.728394,548.808716 983.989807,553.950806   C988.805725,553.950806 993.109741,553.950806 998.373535,553.950806  z"/>
<path fill="#0C0C0D" opacity="1.000000" stroke="none" d=" M390.083923,565.713745   C390.203217,562.958557 390.017761,560.570984 390.516022,558.335876   C391.587433,553.529663 394.861603,550.934875 399.753174,550.791321   C405.386169,550.625916 411.027710,550.752930 416.825226,550.752930   C417.041931,549.635681 417.300079,548.860657 417.327728,548.077454   C417.645355,539.078003 416.924164,538.330872 408.040680,538.327637   C403.222656,538.325867 398.404602,538.327271 393.502441,538.327271   C392.076050,535.137878 393.285919,533.297791 396.377808,533.180603   C403.005249,532.929565 409.680084,532.615295 416.271057,533.138550   C421.364136,533.542847 423.873383,537.294495 423.928162,543.132141   C424.026184,553.574890 423.955811,564.019226 423.955811,575.415710   C421.996033,574.781799 419.896240,574.102600 417.158356,573.216980   C411.163422,578.057739 403.220917,576.635376 395.521423,574.787292   C391.612976,573.849243 390.128540,570.159058 390.083923,565.713745  M398.788940,556.227905   C395.578217,560.510132 395.600952,569.069824 399.200104,569.744507   C404.073822,570.658142 409.281647,570.168762 414.289703,569.690308   C415.386932,569.585388 416.873016,567.077026 417.084381,565.526184   C417.519623,562.332581 417.215271,559.038147 417.215271,555.142517   C411.075989,555.412476 405.338135,555.664795 398.788940,556.227905  z"/>
<path fill="#0C0C0D" opacity="1.000000" stroke="none" d=" M1045.788818,576.019165   C1044.159546,576.020386 1042.993408,576.020630 1041.827148,576.020691   C1030.658447,576.021667 1027.807007,573.163879 1028.045776,562.208191   C1028.215454,554.420837 1031.527100,550.984924 1039.298584,550.655640   C1041.959717,550.542847 1044.628906,550.616638 1047.294434,550.611572   C1049.763672,550.606873 1052.232910,550.610535 1054.966187,550.610535   C1055.085205,549.022339 1055.257324,547.734924 1055.265747,546.446472   C1055.312988,539.306030 1054.419189,538.390686 1047.314087,538.334839   C1042.316284,538.295593 1037.317993,538.317688 1032.319946,538.296997   C1031.999756,538.295654 1031.680176,538.161804 1031.323853,538.081421   C1030.015015,534.869629 1031.513916,533.238281 1034.570923,533.128357   C1040.883301,532.901489 1047.234253,532.567261 1053.516235,533.017944   C1059.185425,533.424683 1061.834106,537.089111 1061.892578,543.458130   C1061.987183,553.764648 1061.918091,564.072693 1061.918091,575.343567   C1059.982300,574.763977 1057.882446,574.135376 1055.554810,573.438538   C1052.989014,574.150024 1049.620483,575.084045 1045.788818,576.019165  M1038.459229,570.462219   C1041.931152,570.558289 1045.411621,570.850342 1048.872803,570.699402   C1052.925781,570.522705 1055.305664,568.364502 1055.306152,564.074829   C1055.306519,561.307129 1055.306152,558.539429 1055.306152,555.367310   C1050.501343,555.367310 1046.175293,554.988770 1041.961182,555.512329   C1039.514160,555.816223 1035.564697,557.204590 1035.231567,558.742126   C1034.407715,562.543945 1032.505249,567.380859 1038.459229,570.462219  z"/>
<path fill="#0C0C0C" opacity="1.000000" stroke="none" d=" M876.144287,557.008301   C876.129089,558.652771 876.124939,559.819214 876.129822,560.985596   C876.162048,568.689270 877.788635,570.367065 885.512634,570.449524   C891.165405,570.509888 896.819275,570.461365 904.428650,570.461365   C902.532410,572.661316 901.493469,574.942566 900.389771,574.974304   C892.651672,575.197021 884.806824,575.643188 877.187256,574.609192   C872.477783,573.970032 869.974976,569.420715 869.859497,564.451294   C869.704651,557.790894 869.830811,551.123779 869.863037,544.459656   C869.867126,543.631897 869.948059,542.784302 870.139587,541.980713   C871.912781,534.540710 877.870667,531.926636 891.284241,532.671631   C899.589111,533.132874 903.536804,536.294189 904.273560,543.551025   C904.622620,546.988892 904.333496,550.491638 904.333496,555.407593   C896.967529,555.407593 889.571594,555.329346 882.179260,555.459045   C880.166992,555.494385 878.165710,556.155945 876.144287,557.008301  M878.309204,539.721313   C877.348328,543.156250 876.387390,546.591187 875.348022,550.306641   C883.811523,550.306641 890.862366,550.306641 898.134338,550.306641   C898.134338,547.969727 898.697205,545.751282 897.993713,544.059387   C897.087097,541.878662 895.309204,538.619385 893.655396,538.461975   C888.820312,538.001648 883.860596,538.850647 878.309204,539.721313  z"/>
<path fill="#0E0E0D" opacity="1.000000" stroke="none" d=" M599.553467,575.968140   C594.612000,575.997681 590.117554,576.138855 585.633728,575.979004   C577.506226,575.689331 572.893127,571.373108 572.545471,563.343872   C572.272644,557.043457 572.254211,550.694641 572.710632,544.409912   C573.230957,537.244080 577.032837,533.558899 584.112976,532.924866   C588.067322,532.570740 592.099487,532.559143 596.057007,532.880615   C603.176453,533.458923 606.821716,537.367859 607.186096,544.489014   C607.354309,547.776001 607.214722,551.078796 607.214722,554.979858   C597.753052,554.979858 588.656860,554.979858 579.282288,554.979858   C579.154236,556.849670 578.999817,558.130981 578.989136,559.413391   C578.905884,569.400757 579.978882,570.446472 590.201111,570.443848   C595.342041,570.442566 600.482971,570.443665 605.755737,570.443665   C606.847961,575.839844 602.577820,574.973145 599.553467,575.968140  M590.462280,537.935547   C579.825195,537.952515 578.080078,539.874329 579.372620,550.421387   C586.419983,550.421387 593.497681,550.421387 600.547302,550.421387   C601.998779,540.129517 600.466980,538.084412 590.462280,537.935547  z"/>
<path fill="#0F0E0E" opacity="1.000000" stroke="none" d=" M755.002075,576.028259   C752.689026,576.026978 750.858215,576.077209 749.031067,576.016479   C740.415710,575.730408 735.759583,571.310364 735.425659,562.788147   C735.210999,557.308899 735.324646,551.814514 735.386963,546.328003   C735.403809,544.845398 735.653259,543.339172 735.995300,541.890930   C737.795105,534.269409 744.372437,531.557983 758.084961,532.723511   C765.908142,533.388489 769.787170,537.109253 770.164734,544.536072   C770.331909,547.824524 770.192932,551.128479 770.192932,555.026855   C760.700317,555.026855 751.604431,555.026855 742.862122,555.026855   C742.341187,555.928040 742.044312,556.207336 742.029602,556.500793   C741.378540,569.473450 742.312805,570.455078 755.232971,570.447388   C759.703979,570.444702 764.174988,570.446960 768.634216,570.446960   C768.786377,575.536011 767.553345,576.031006 755.002075,576.028259  M763.767029,542.263245   C761.300537,538.187744 752.316650,536.214172 746.283997,538.422485   C742.241699,539.902283 741.173706,543.269592 742.594543,550.647217   C745.983521,550.647217 749.452759,550.647217 752.922058,550.647217   C756.531738,550.647217 760.141357,550.647217 763.907837,550.647217   C763.907837,547.748718 763.907837,545.431458 763.767029,542.263245  z"/>
<path fill="#0E0E0E" opacity="1.000000" stroke="none" d=" M491.349548,570.419373   C487.896729,560.342773 488.096802,550.224487 490.498993,540.613586   C492.628693,532.092834 500.860901,532.568359 507.929077,532.595642   C517.461548,532.632446 521.948242,534.671692 523.319763,540.586609   C524.342896,544.999146 524.089722,549.707520 524.452209,554.970947   C514.615356,554.970947 505.535400,554.970947 496.815765,554.970947   C496.290619,555.907898 496.000946,556.189514 495.986237,556.484802   C495.333984,569.551453 496.187225,570.449402 509.189392,570.447449   C513.662231,570.446777 518.135132,570.447327 523.630127,570.447327   C522.733032,572.265991 522.469788,573.820923 521.558716,574.478516   C516.176208,578.363770 496.273529,575.771729 491.349548,570.419373  M517.931274,548.315308   C517.913269,538.360840 515.624573,536.801575 502.743011,537.967529   C496.774536,538.507751 495.031311,541.871338 496.443176,550.625671   C502.999542,550.625671 509.623138,550.660339 516.244751,550.563965   C516.811340,550.555664 517.365234,549.676331 517.931274,548.315308  z"/>
<path fill="#0D0D0D" opacity="1.000000" stroke="none" d=" M141.048767,567.585693   C140.869141,559.236267 140.769623,551.281067 140.691574,543.325623   C140.686768,542.834717 140.822083,542.334961 140.941177,541.851318   C142.848022,534.108215 149.555359,531.422119 163.574707,532.780518   C170.943787,533.494507 174.793243,537.378845 175.114166,544.610840   C175.253632,547.753540 175.137573,550.907593 175.137573,554.893311   C165.771576,554.893311 156.578964,554.893311 147.791870,554.893311   C147.249542,556.023743 147.005035,556.310181 146.982071,556.613342   C146.042099,569.025574 147.366211,570.449341 159.808105,570.446960   C164.428223,570.446045 169.048355,570.446777 174.521133,571.621582   C173.543304,572.751404 172.575745,574.848267 171.586014,574.858765   C163.394379,574.945923 155.149857,575.082642 147.036621,574.174377   C144.865051,573.931213 143.090530,570.141479 141.048767,567.585693  M167.925949,550.565002   C169.726456,546.552612 170.378998,541.017761 166.538300,539.680237   C161.484375,537.920166 155.011871,537.971802 149.829269,539.520203   C145.239685,540.891479 146.913040,546.375305 147.234116,550.649963   C154.081863,550.649963 160.548920,550.649963 167.925949,550.565002  z"/>
<path fill="#090909" opacity="1.000000" stroke="none" d=" M241.913345,570.920410   C241.037598,568.404785 239.879089,566.231689 239.788391,564.014893   C239.523239,557.535217 239.468933,551.029297 239.736237,544.550232   C240.023026,537.598877 244.036209,533.424988 250.940323,532.865723   C255.400177,532.504517 259.935272,532.500183 264.395538,532.853760   C270.631287,533.348206 274.803314,537.602112 275.109009,543.948181   C275.436829,550.753967 275.332733,557.590759 275.153931,564.407166   C275.031342,569.081848 272.862000,573.829956 268.417206,574.452942   C261.202118,575.464233 253.723907,574.843628 246.378723,574.474731   C244.908249,574.400879 243.535995,572.370911 241.913345,570.920410  M262.002808,570.885864   C266.598969,570.890686 268.722321,568.151123 268.866974,563.996826   C269.092896,557.509216 269.108276,550.999878 268.846405,544.514587   C268.666168,540.050171 266.256836,537.493591 261.403870,537.788818   C258.748749,537.950378 256.074341,537.763184 253.410660,537.823303   C248.298599,537.938599 246.259949,539.922668 246.067673,545.140076   C245.938919,548.633362 246.037415,552.135132 246.037292,555.633118   C246.036743,570.893372 246.037155,570.893372 262.002808,570.885864  z"/>
<path fill="#0C0B0B" opacity="1.000000" stroke="none" d=" M688.064453,524.129639   C691.156982,522.279846 693.936768,519.655518 696.925476,519.390808   C704.354309,518.733032 711.884033,518.979919 719.361572,519.221741   C722.337280,519.317993 725.004456,520.568298 723.384399,524.914551   C716.317444,524.914551 709.176941,524.861450 702.037598,524.929443   C694.873840,524.997681 691.726807,527.494141 691.372314,534.590454   C690.940918,543.225769 690.935059,551.917480 691.390869,560.550720   C691.748413,567.324951 694.992188,569.894836 701.811218,569.981140   C708.959106,570.071594 716.109131,570.001404 723.135254,570.001404   C724.812683,573.283325 723.550720,575.259033 720.497070,575.305054   C711.896790,575.434692 703.252808,575.603455 694.701233,574.874878   C689.933777,574.468750 685.961121,570.624023 685.731140,565.977295   C685.119019,553.612000 685.441772,541.195618 685.619507,528.802734   C685.640503,527.334534 687.070190,525.886475 688.064453,524.129639  z"/>
<path fill="#040404" opacity="1.000000" stroke="none" d=" M1121.342651,547.143555   C1121.343262,556.588623 1121.343262,565.550964 1121.343262,574.791016   C1119.156006,574.791016 1117.269043,574.791016 1115.185303,574.791016   C1115.185303,555.432251 1115.185303,536.209412 1115.185303,516.808167   C1117.192383,516.808167 1118.960449,516.808167 1121.210449,516.808167   C1121.210449,522.959167 1121.210449,529.011108 1121.210449,534.124939   C1127.781128,533.622253 1133.920044,532.770020 1140.056274,532.790344   C1146.237793,532.810913 1149.042725,536.083069 1149.080811,542.289917   C1149.147095,553.071167 1149.099365,563.853210 1149.099365,574.846313   C1146.960449,574.846313 1145.200195,574.846313 1142.817993,574.846313   C1142.817993,565.288025 1142.819702,555.696533 1142.817505,546.105103   C1142.815918,539.349976 1141.824341,538.346741 1135.061279,538.306152   C1133.063965,538.294189 1131.036133,538.123535 1129.074219,538.397949   C1119.672363,539.713196 1121.542236,538.086853 1121.342651,547.143555  z"/>
<path fill="#0D0D0D" opacity="1.000000" stroke="none" d=" M785.043823,538.280090   C785.045349,536.528076 785.045349,535.240417 785.045349,532.745422   C787.685486,533.689575 789.602661,534.464111 791.579590,535.030212   C792.206299,535.209656 792.987854,534.787842 793.705994,534.717590   C799.899658,534.112122 806.098755,533.052002 812.288513,533.101013   C816.258423,533.132507 818.820740,536.122559 819.165405,540.373352   C819.286194,541.863098 819.245178,543.367554 819.246033,544.865295   C819.251892,554.831421 819.249023,564.797485 819.249023,574.921509   C817.096191,574.921509 815.291870,574.921509 812.899902,574.921509   C812.899902,565.351440 812.906006,555.747070 812.897827,546.142639   C812.892029,539.302612 811.985168,538.392395 805.193054,538.333069   C791.635498,538.214661 791.642578,538.214661 791.632629,551.853760   C791.627319,559.178467 791.597717,566.503235 791.553589,573.827820   C791.551758,574.124512 791.288147,574.419556 791.057007,574.902222   C789.343506,574.902222 787.543152,574.902222 785.042358,574.902222   C785.042358,562.885925 785.042358,550.815125 785.043823,538.280090  z"/>
<path fill="#0C0C0C" opacity="1.000000" stroke="none" d=" M1234.302612,557.229980   C1230.223999,556.851501 1226.564209,556.613647 1222.936035,556.136169   C1216.898071,555.341553 1214.656372,552.725586 1214.435425,546.526489   C1214.143921,538.349548 1216.472168,533.757202 1222.418213,533.116516   C1228.491455,532.462036 1234.697754,532.860352 1240.836060,533.075195   C1243.698975,533.175354 1244.893555,534.925781 1243.651123,538.169067   C1238.105591,538.169067 1232.466797,538.200806 1226.828613,538.157898   C1223.098633,538.129517 1220.898682,539.331665 1220.892944,543.627563   C1220.887573,547.514832 1221.073486,550.577087 1226.100342,550.760010   C1230.417114,550.916992 1234.743164,551.368530 1239.016846,552.011414   C1243.519897,552.688904 1246.170776,555.310181 1246.135498,560.127747   C1246.119751,562.292175 1246.231689,564.466125 1246.067017,566.619019   C1245.689575,571.551636 1242.627808,575.390198 1237.734985,575.740479   C1231.450684,576.190308 1225.085449,576.061707 1218.792236,575.634216   C1214.744385,575.359192 1214.703369,574.814270 1215.274536,570.245605   C1221.348267,570.245605 1227.470825,570.213684 1233.592773,570.258301   C1236.908203,570.282471 1239.667114,569.696533 1239.745361,565.557556   C1239.817383,561.747192 1240.647339,557.465210 1234.302612,557.229980  z"/>
<path fill="#0B0A0B" opacity="1.000000" stroke="none" d=" M621.143433,552.709534   C620.622253,548.148865 619.339233,543.644470 620.369141,539.751953   C621.080994,537.061462 624.747620,533.747009 627.515442,533.295349   C633.501099,532.318542 639.761963,532.871155 645.901733,533.066223   C648.732056,533.156067 650.043579,534.823059 648.813843,538.156189   C643.459656,538.156189 638.002441,538.192932 632.545959,538.143494   C628.807800,538.109619 626.184143,538.819580 625.978027,543.544983   C625.771423,548.284180 627.071289,550.766479 632.158325,550.852539   C635.973877,550.917053 639.803040,551.374390 643.585266,551.933228   C649.053101,552.741089 651.072632,555.112732 651.256165,560.569031   C651.323303,562.563721 651.329590,564.572754 651.174194,566.560364   C650.764954,571.794067 647.627380,575.469666 642.430054,575.804749   C636.464355,576.189453 630.442322,576.065857 624.465820,575.756287   C621.691650,575.612488 618.513733,574.863220 620.442322,570.244873   C626.476685,570.244873 632.619202,570.157043 638.757751,570.276062   C642.789856,570.354248 644.964111,569.035706 644.975647,564.556030   C644.986267,560.444275 644.651001,557.291748 639.405396,557.179382   C635.422791,557.093994 631.398315,556.746582 627.496338,555.984497   C625.343201,555.564087 623.403931,554.048584 621.143433,552.709534  z"/>
<path fill="#050607" opacity="1.000000" stroke="none" d=" M1168.117432,533.525391   C1171.313599,533.106445 1172.290283,534.128662 1172.229126,537.049072   C1172.041016,546.029724 1172.256226,555.018372 1172.117432,564.000854   C1172.053101,568.159912 1173.649170,570.308594 1177.938477,570.134460   C1183.014160,569.928528 1188.090454,569.736633 1193.429443,569.528381   C1193.429443,557.199402 1193.429443,545.770630 1193.429443,533.930664   C1195.601685,533.930664 1197.473877,533.930664 1199.697998,533.930664   C1199.697998,547.334534 1199.697998,560.881592 1199.697998,575.708435   C1197.497314,574.836792 1195.595581,574.015930 1193.640015,573.354431   C1193.120483,573.178650 1192.435791,573.493652 1191.826416,573.579468   C1186.160522,574.377319 1180.509521,575.661011 1174.824707,575.833130   C1169.265015,576.001404 1165.992554,572.547913 1165.905151,567.248108   C1165.735107,556.935242 1165.783447,546.617432 1165.898071,536.303467   C1165.908325,535.372559 1167.057983,534.454346 1168.117432,533.525391  z"/>
<path fill="#060606" opacity="1.000000" stroke="none" d=" M196.477173,550.017700   C196.477142,558.497253 196.477142,566.478760 196.477142,574.762573   C194.286789,574.762573 192.394577,574.762573 190.250092,574.762573   C190.250092,561.199097 190.250092,547.613159 190.250092,533.329834   C192.547012,533.663818 194.606262,533.963318 195.870911,534.147217   C203.033737,533.678772 209.684723,532.845093 216.322479,532.939697   C221.353790,533.011414 224.073181,536.376282 224.124649,541.492554   C224.235123,552.474060 224.158539,563.457520 224.158539,574.755371   C222.099319,574.755371 220.219055,574.755371 217.870300,574.755371   C217.870300,564.948425 217.885574,555.164978 217.864548,545.381653   C217.852020,539.554626 216.725220,538.430847 210.895859,538.292664   C209.896698,538.268982 208.896332,538.291870 207.896545,538.298523   C196.478989,538.374573 196.478989,538.374878 196.477173,550.017700  z"/>
<path fill="#101012" opacity="1.000000" stroke="none" d=" M854.545410,575.845825   C852.442871,575.937012 850.778381,576.057312 849.119263,576.005493   C841.644958,575.772034 839.079102,573.109131 839.056396,565.551270   C839.030945,557.086426 839.050598,548.621460 839.050598,539.806580   C836.739624,539.641785 834.663696,539.493713 832.158813,539.315002   C832.039917,537.972229 831.918945,536.605835 831.768738,534.909973   C834.177856,534.754517 836.269287,534.619629 838.866028,534.452087   C838.866028,530.720398 838.866028,526.997681 838.866028,523.184021   C841.285217,522.808105 843.220276,522.507446 845.704590,522.121399   C845.704590,526.403992 845.704590,530.317444 845.704590,534.557861   C850.640991,534.557861 855.083374,534.557861 859.755737,534.557861   C859.755737,536.313965 859.755737,537.731628 859.755737,539.510742   C855.169800,539.510742 850.724548,539.510742 845.751404,539.510742   C845.751404,548.947571 845.581421,558.042175 845.945862,567.115234   C845.996948,568.386169 848.529846,570.302856 850.157593,570.604187   C853.202087,571.167786 856.425232,570.766235 859.550537,570.766235   C861.282837,575.679871 857.364563,575.003601 854.545410,575.845825  z"/>
<path fill="#080707" opacity="1.000000" stroke="none" d=" M562.037842,534.876343   C562.587952,536.291565 562.739746,537.560974 562.961731,539.417358   C557.987305,539.417358 553.414917,539.417358 548.343811,539.417358   C548.343811,548.882629 548.142944,557.818787 548.549377,566.727234   C548.614136,568.147644 551.232910,570.246094 552.973450,570.618896   C555.976501,571.262207 559.216919,570.797180 564.143250,570.797180   C562.403564,572.923035 561.608459,574.845703 560.589172,574.972961   C556.512390,575.482056 552.308594,575.927246 548.260864,575.457031   C543.893372,574.949707 541.880554,571.765259 541.911987,567.288086   C541.976135,558.149231 541.931213,549.009644 541.931213,539.679138   C539.475403,539.562561 537.351746,539.461731 534.931641,539.346863   C534.931641,537.830505 534.931641,536.440857 534.931641,534.689819   C537.135864,534.689819 539.245544,534.689819 541.741211,534.689819   C541.741211,530.766296 541.741211,527.180176 541.741211,523.304321   C543.926147,522.906616 545.791199,522.567200 548.079712,522.150696   C548.079712,526.243896 548.079712,530.001587 548.079712,534.730591   C552.818298,534.730591 557.228943,534.730591 562.037842,534.876343  z"/>
<path fill="#080708" opacity="1.000000" stroke="none" d=" M126.531677,539.485596   C122.947632,539.485840 119.813438,539.485840 116.219696,539.485840   C116.219696,548.890198 116.019150,557.846252 116.427147,566.774536   C116.491341,568.179138 119.144974,570.247986 120.895935,570.618896   C123.899994,571.255310 127.136444,570.794739 131.168304,571.991760   C130.099304,573.070862 129.151291,574.891357 127.938492,575.089233   C124.372154,575.671204 120.656494,576.049561 117.081306,575.690613   C112.338409,575.214478 109.771141,572.320190 109.832809,567.244507   C109.943565,558.127625 109.864052,549.008362 109.864052,539.706360   C107.335159,539.568604 105.214470,539.453125 102.678223,539.314941   C102.610466,537.834290 102.547585,536.460205 102.473679,534.845215   C104.965179,534.719788 107.078743,534.613342 109.611710,534.485840   C109.611710,530.809570 109.611710,527.241028 109.611710,523.359619   C111.818802,522.910156 113.682716,522.530518 116.112671,522.035645   C116.112671,526.290894 116.112671,530.209534 116.112671,534.509399   C121.053925,534.509399 125.490425,534.509399 129.994873,534.509399   C131.464981,538.044922 130.952484,539.872925 126.531677,539.485596  z"/>
<path fill="#151616" opacity="1.000000" stroke="none" d=" M919.206726,554.999695   C919.206726,547.709534 919.206726,540.919189 919.206726,533.024719   C922.057983,533.761536 924.362976,534.357239 927.037598,535.048462   C931.814697,534.208252 937.405884,533.224792 943.536804,532.146484   C943.536804,534.958801 943.536804,536.646362 943.536804,538.432800   C938.975281,538.824463 934.547913,539.206726 930.120056,539.583923   C926.909363,539.857483 925.753906,541.408752 925.835144,544.785583   C926.074280,554.720215 925.920471,564.664368 925.920471,574.851929   C923.603027,574.851929 921.683411,574.851929 919.206726,574.851929   C919.206726,568.378174 919.206726,561.938843 919.206726,554.999695  z"/>
<path fill="#0C0C0C" opacity="1.000000" stroke="none" d=" M1079.007690,565.958801   C1079.007690,555.018250 1079.007690,544.572571 1079.007690,533.042297   C1081.718506,533.763550 1083.928345,534.351562 1086.693115,535.087158   C1091.415405,534.267944 1097.124878,533.277466 1103.254883,532.214050   C1103.254883,535.072449 1103.254883,536.661926 1103.254883,538.456055   C1098.816895,538.788574 1094.571045,539.076599 1090.330933,539.433716   C1086.818970,539.729492 1085.301758,541.277832 1085.434937,545.205750   C1085.765991,554.969360 1085.543945,564.751709 1085.543945,574.806519   C1083.299805,574.806519 1081.404419,574.806519 1079.007690,574.806519   C1079.007690,572.014893 1079.007690,569.234314 1079.007690,565.958801  z"/>
<path fill="#171716" opacity="1.000000" stroke="none" d=" M375.889526,544.039368   C375.889526,554.475220 375.889526,564.417297 375.889526,574.739380   C373.646759,574.739380 371.631348,574.739380 369.384918,574.739380   C369.384918,561.110901 369.384918,547.576233 369.384918,533.747437   C371.442505,533.747437 373.356262,533.747437 375.889526,533.747437   C375.889526,537.036194 375.889526,540.290833 375.889526,544.039368  z"/>
<path fill="#1D1D1D" opacity="1.000000" stroke="none" d=" M369.157196,518.450745   C371.209961,517.373779 373.258392,516.720337 375.722778,515.934265   C375.722778,519.464661 375.722778,521.856018 375.722778,524.545044   C373.638947,524.545044 371.750519,524.545044 369.152863,524.545044   C369.152863,522.663574 369.152863,520.768921 369.157196,518.450745  z"/>
<path fill="#FEFEFE" opacity="1.000000" stroke="none" d=" M543.911133,377.999756   C543.652100,386.144012 543.926392,393.853027 543.009399,401.417572   C541.620605,412.873810 535.080383,418.764740 523.622681,420.018280   C520.812439,420.325714 517.974365,420.520691 515.148804,420.524048   C485.002930,420.559753 454.856964,420.549286 424.711060,420.535461   C423.577942,420.534943 422.444885,420.371216 421.122009,420.268860   C421.122009,348.509338 421.122009,276.961517 421.122009,205.063492   C422.531250,204.992920 423.807709,204.873520 425.084167,204.873215   C455.230072,204.866165 485.376038,204.847214 515.521912,204.883881   C536.491638,204.909378 543.832092,212.112091 543.871338,233.099625   C543.961243,281.232880 543.906860,329.366394 543.911133,377.999756  z"/>
<path fill="#FDFBFB" opacity="1.000000" stroke="none" d=" M1041.028442,336.615967   C1040.642822,335.029846 1040.272095,333.332977 1040.725708,331.896332   C1053.175171,292.464813 1065.749268,253.072525 1078.185425,213.636780   C1080.080200,207.628311 1081.387207,201.435226 1083.002441,195.337204   C1083.283813,194.275345 1083.748169,193.261963 1083.816406,193.075958   C1099.022339,240.405136 1114.380127,288.206940 1129.936279,336.626495   C1100.209229,336.626495 1070.818359,336.626495 1041.028442,336.615967  z"/>
<path fill="#F8F9F9" opacity="1.000000" stroke="none" d=" M342.078003,526.598633   C343.933441,530.154480 346.458191,533.380188 346.791748,536.818420   C347.480255,543.914978 347.113556,551.127075 346.970703,558.287476   C346.813873,566.149475 343.408295,569.619446 335.685547,569.833374   C330.072845,569.988770 324.452362,569.863770 318.580658,569.863770   C318.580658,554.825378 318.580658,540.239868 318.580658,524.506104   C326.413696,525.134277 334.084503,525.749451 342.078003,526.598633  z"/>
<path fill="#FBFBFA" opacity="1.000000" stroke="none" d=" M452.649353,569.731079   C448.770325,568.976929 447.344330,567.170288 447.541565,563.423584   C447.881439,556.968079 447.778229,550.477539 447.580902,544.010315   C447.483398,540.815247 448.308228,539.350159 451.780365,538.834900   C467.705109,536.471863 468.922974,537.383179 468.922241,553.114380   C468.922089,556.600098 468.962799,560.086548 468.905334,563.571350   C468.816742,568.940857 467.536255,570.215332 462.026520,570.221558   C459.046112,570.224915 456.065460,569.972595 452.649353,569.731079  z"/>
<path fill="#F5F6F5" opacity="1.000000" stroke="none" d=" M997.893677,553.950806   C993.109741,553.950806 988.805725,553.950806 983.989807,553.950806   C985.728394,548.808716 987.347595,544.002625 988.978699,539.200562   C990.557800,534.551636 992.149231,529.906860 994.118469,524.137451   C997.811768,534.575256 1001.110901,543.898987 1004.667664,553.950806   C1002.166504,553.950806 1000.270020,553.950806 997.893677,553.950806  z"/>
<path fill="#F3F3F3" opacity="1.000000" stroke="none" d=" M399.194611,556.072510   C405.338135,555.664795 411.075989,555.412476 417.215271,555.142517   C417.215271,559.038147 417.519623,562.332581 417.084381,565.526184   C416.873016,567.077026 415.386932,569.585388 414.289703,569.690308   C409.281647,570.168762 404.073822,570.658142 399.200104,569.744507   C395.600952,569.069824 395.578217,560.510132 399.194611,556.072510  z"/>
<path fill="#F3F3F3" opacity="1.000000" stroke="none" d=" M1038.069092,570.331360   C1032.505249,567.380859 1034.407715,562.543945 1035.231567,558.742126   C1035.564697,557.204590 1039.514160,555.816223 1041.961182,555.512329   C1046.175293,554.988770 1050.501343,555.367310 1055.306152,555.367310   C1055.306152,558.539429 1055.306519,561.307129 1055.306152,564.074829   C1055.305664,568.364502 1052.925781,570.522705 1048.872803,570.699402   C1045.411621,570.850342 1041.931152,570.558289 1038.069092,570.331360  z"/>
<path fill="#F2F3F2" opacity="1.000000" stroke="none" d=" M878.629456,539.453857   C883.860596,538.850647 888.820312,538.001648 893.655396,538.461975   C895.309204,538.619385 897.087097,541.878662 897.993713,544.059387   C898.697205,545.751282 898.134338,547.969727 898.134338,550.306641   C890.862366,550.306641 883.811523,550.306641 875.348022,550.306641   C876.387390,546.591187 877.348328,543.156250 878.629456,539.453857  z"/>
<path fill="#F2F3F2" opacity="1.000000" stroke="none" d=" M590.919189,537.935059   C600.466980,538.084412 601.998779,540.129517 600.547302,550.421387   C593.497681,550.421387 586.419983,550.421387 579.372620,550.421387   C578.080078,539.874329 579.825195,537.952515 590.919189,537.935059  z"/>
<path fill="#F2F3F2" opacity="1.000000" stroke="none" d=" M763.837402,542.688721   C763.907837,545.431458 763.907837,547.748718 763.907837,550.647217   C760.141357,550.647217 756.531738,550.647217 752.922058,550.647217   C749.452759,550.647217 745.983521,550.647217 742.594543,550.647217   C741.173706,543.269592 742.241699,539.902283 746.283997,538.422485   C752.316650,536.214172 761.300537,538.187744 763.837402,542.688721  z"/>
<path fill="#F2F3F2" opacity="1.000000" stroke="none" d=" M517.928162,548.758545   C517.365234,549.676331 516.811340,550.555664 516.244751,550.563965   C509.623138,550.660339 502.999542,550.625671 496.443176,550.625671   C495.031311,541.871338 496.774536,538.507751 502.743011,537.967529   C515.624573,536.801575 517.913269,538.360840 517.928162,548.758545  z"/>
<path fill="#F2F3F2" opacity="1.000000" stroke="none" d=" M167.470978,550.607483   C160.548920,550.649963 154.081863,550.649963 147.234116,550.649963   C146.913040,546.375305 145.239685,540.891479 149.829269,539.520203   C155.011871,537.971802 161.484375,537.920166 166.538300,539.680237   C170.378998,541.017761 169.726456,546.552612 167.470978,550.607483  z"/>
<path fill="#FAFAFA" opacity="1.000000" stroke="none" d=" M261.557831,570.887024   C246.037155,570.893372 246.036743,570.893372 246.037292,555.633118   C246.037415,552.135132 245.938919,548.633362 246.067673,545.140076   C246.259949,539.922668 248.298599,537.938599 253.410660,537.823303   C256.074341,537.763184 258.748749,537.950378 261.403870,537.788818   C266.256836,537.493591 268.666168,540.050171 268.846405,544.514587   C269.108276,550.999878 269.092896,557.509216 268.866974,563.996826   C268.722321,568.151123 266.598969,570.890686 261.557831,570.887024  z"/>
</svg>